name Visual3d_SIMM_input.mot
datacolumns 42
datarows 26
range 2.030000 2.280000
endheader
time	pelvis_tx	pelvis_ty	pelvis_tz	pelvis_tilt	pelvis_list	pelvis_rotation	hip_flexion_r	hip_adduction_r	hip_rotation_r	knee_angle_r	ankle_angle_r	subtalar_angle_r	mtp_angle_r	hip_flexion_l	hip_adduction_l	hip_rotation_l	knee_angle_l	ankle_angle_l	subtalar_angle_l	mtp_angle_l	lumbar_extension	lumbar_bending	lumbar_rotation	ground_force_vx	ground_force_vy	ground_force_vz	ground_force_px	ground_force_py	ground_force_pz	ground_force_vx	ground_force_vy	ground_force_vz	ground_force_px	ground_force_py	ground_force_pz	ground_torque_x	ground_torque_y	ground_torque_z	ground_torque_x	ground_torque_y	ground_torque_z
2.030000	0.259172	0.607760	-0.136651	-8.219903	-34.546230	85.773499	25.609699	-7.590785	-12.347037	-43.315646	8.730813	-0.000000	0.000000	61.256886	10.151146	-6.643359	-35.082983	13.763571	-0.000000	0.000000	42.705481	-2.621390	12.158766	0.239971	77.326172	-43.811806	0.287233	-0.002962	0.146357	10.909765	159.359848	34.795258	0.241395	-0.008460	-0.242821	0.001877	0.565032	-0.010621	-0.003067	0.332816	0.007119
2.040000	0.258921	0.606092	-0.147125	-9.433057	-33.224457	84.755783	25.375165	-9.419995	-12.267720	-46.207930	6.712426	-0.000000	0.000000	60.015315	11.210440	-6.493332	-36.892959	15.410083	-0.000000	0.000000	42.089432	-3.240368	13.370709	0.666565	62.338787	-38.536221	0.288849	-0.003825	0.140599	10.042610	187.863663	39.884071	0.243944	-0.008425	-0.243892	0.001789	0.538555	-0.010124	-0.002401	0.260543	0.005573
2.050000	0.258609	0.604276	-0.157508	-10.593303	-31.996517	83.803963	25.315820	-11.211059	-12.135965	-49.226584	4.506640	-0.000000	0.000000	58.950249	12.252086	-6.409712	-38.844891	17.042866	-0.000000	0.000000	41.557378	-3.841246	14.510744	0.924955	47.277840	-32.207314	0.289854	-0.004227	0.133465	8.449150	212.357803	45.159546	0.245306	-0.008699	-0.246094	0.001656	0.498314	-0.009367	-0.001616	0.175335	0.003750
2.060000	0.258247	0.602320	-0.167650	-11.638830	-30.936810	82.971321	25.532780	-12.878841	-11.921261	-52.336297	2.131933	-0.000000	0.000000	58.137136	13.226752	-6.417842	-40.926394	18.602964	-0.000000	0.000000	41.155984	-4.394308	15.497981	1.034461	33.225372	-25.583649	0.290681	-0.004302	0.122676	6.737467	233.090179	49.804413	0.245812	-0.009037	-0.248491	0.001499	0.451154	-0.008481	-0.000941	0.102138	0.002185
2.070000	0.257869	0.600283	-0.177440	-12.542273	-30.070717	82.267441	26.073060	-14.366388	-11.584869	-55.499303	-0.348993	-0.000000	0.000000	57.579226	14.096237	-6.529366	-43.080250	20.034932	-0.000000	0.000000	40.892042	-4.880632	16.297229	1.033916	20.911169	-19.384212	0.292165	-0.004262	0.102898	5.446359	250.536285	53.300583	0.245855	-0.009279	-0.250584	0.001343	0.404266	-0.007599	-0.000571	0.061955	0.001325
2.080000	0.257518	0.598255	-0.186811	-13.301149	-29.390533	81.674965	26.939851	-15.640645	-11.094357	-58.675444	-2.832719	-0.000000	0.000000	57.232928	14.834490	-6.742791	-45.226214	21.297252	-0.000000	0.000000	40.747754	-5.291913	16.903291	0.000000	0.000000	0.000000	0.000000	0.000000	0.000000	4.882065	264.957581	55.483997	0.245742	-0.009358	-0.252207	0.000000	0.000000	0.000000	-0.000583	0.063229	0.001352
2.090000	0.257233	0.596331	-0.195734	-13.924611	-28.871422	81.169228	28.104690	-16.685626	-10.436930	-61.823218	-5.189326	-0.000000	0.000000	57.033599	15.427565	-7.044570	-47.284191	22.367165	-0.000000	0.000000	40.694189	-5.627975	17.322309	0.000000	0.000000	0.000000	0.000000	0.000000	0.000000	5.061179	276.456848	56.389980	0.245675	-0.009278	-0.253368	0.000000	0.000000	0.000000	-0.000934	0.101365	0.002168
2.100000	0.257042	0.594604	-0.204211	-14.422541	-28.483725	80.731598	29.519613	-17.495653	-9.625039	-64.901181	-7.281093	-0.000000	0.000000	56.914498	15.871845	-7.409556	-49.188990	23.239601	-0.000000	0.000000	40.700609	-5.892457	17.560495	0.000000	0.000000	0.000000	0.000000	0.000000	0.000000	5.759046	285.126038	56.196625	0.245744	-0.009082	-0.254158	0.000000	0.000000	0.000000	-0.001490	0.161714	0.003459
2.110000	0.256958	0.593151	-0.212263	-14.800367	-28.201462	80.354118	31.129069	-18.071328	-8.693972	-67.869814	-8.981882	-0.000000	0.000000	56.818831	16.171513	-7.803410	-50.895906	23.922867	-0.000000	0.000000	40.740777	-6.089421	17.620915	0.000000	0.000000	0.000000	0.000000	0.000000	0.000000	6.639442	291.055206	55.111557	0.245959	-0.008822	-0.254689	0.000000	0.000000	0.000000	-0.002078	0.225503	0.004824
2.120000	0.256985	0.592032	-0.219923	-15.058626	-28.005823	80.038467	32.878502	-18.418338	-7.694779	-70.693120	-10.194074	-0.000000	0.000000	56.704671	16.336219	-8.187075	-52.379785	24.433484	-0.000000	0.000000	40.795484	-6.222019	17.504402	0.000000	0.000000	0.000000	0.000000	0.000000	0.000000	7.410089	294.301971	53.280998	0.246281	-0.008541	-0.255048	0.000000	0.000000	0.000000	-0.002562	0.278024	0.005947
2.130000	0.257112	0.591285	-0.227227	-15.194545	-27.885555	79.792542	34.719805	-18.547094	-6.685534	-73.339682	-10.860646	-0.000000	0.000000	56.545326	16.379320	-8.520921	-53.630953	24.791684	-0.000000	0.000000	40.852478	-6.292039	17.212271	0.000000	0.000000	0.000000	0.000000	0.000000	0.000000	7.922818	294.965485	50.819611	0.246665	-0.008269	-0.255295	0.000000	0.000000	0.000000	-0.002899	0.314526	0.006728
2.140000	0.257325	0.590929	-0.234212	-15.204969	-27.835726	79.625977	36.614838	-18.472479	-5.721998	-75.783285	-10.970809	-0.000000	0.000000	56.327778	16.316577	-8.768810	-54.650195	25.018179	-0.000000	0.000000	40.905436	-6.299896	16.750909	0.000000	0.000000	0.000000	0.000000	0.000000	0.000000	8.185339	293.244659	47.849510	0.247074	-0.008026	-0.255466	0.000000	0.000000	0.000000	-0.003121	0.338632	0.007243
2.150000	0.257604	0.590959	-0.240905	-15.089229	-27.855690	79.545143	38.537198	-18.212358	-4.848930	-78.003287	-10.558303	-0.000000	0.000000	56.050284	16.164145	-8.902660	-55.444860	25.132306	-0.000000	0.000000	40.952438	-6.244941	16.135912	0.000000	0.000000	0.000000	0.000000	0.000000	0.000000	8.297467	289.450439	44.492668	0.247490	-0.007821	-0.255571	0.000000	0.000000	0.000000	-0.003301	0.358216	0.007662
2.160000	0.257932	0.591353	-0.247326	-14.851749	-27.947308	79.549446	40.472785	-17.785751	-4.093771	-79.984944	-9.692786	-0.000000	0.000000	55.720209	15.936856	-8.906336	-56.026334	25.151188	-0.000000	0.000000	40.994881	-6.126609	15.393488	0.000000	0.000000	0.000000	0.000000	0.000000	0.000000	8.366581	283.974518	40.881077	0.247914	-0.007661	-0.255605	0.000000	0.000000	0.000000	-0.003502	0.380027	0.008129
2.170000	0.258297	0.592074	-0.253489	-14.505426	-28.113640	79.629158	42.419498	-17.213518	-3.463775	-81.719812	-8.466778	-0.000000	0.000000	55.352140	15.649089	-8.778270	-56.407739	25.088946	-0.000000	0.000000	41.037344	-5.947209	14.559499	0.000000	0.000000	0.000000	0.000000	0.000000	0.000000	8.443432	277.204895	37.151371	0.248358	-0.007548	-0.255561	0.000000	0.000000	0.000000	-0.003753	0.407215	0.008710
2.180000	0.258694	0.593070	-0.259401	-14.072318	-28.357258	79.766418	44.383997	-16.518891	-2.947979	-83.205378	-6.981739	-0.000000	0.000000	54.964697	15.315627	-8.531268	-56.602618	24.956717	-0.000000	0.000000	41.086579	-5.713772	13.675868	0.000000	0.000000	0.000000	0.000000	0.000000	0.000000	8.505560	269.468597	33.427589	0.248845	-0.007482	-0.255442	0.000000	0.000000	0.000000	-0.004040	0.438398	0.009377
2.190000	0.259124	0.594286	-0.265068	-13.578814	-28.678038	79.939835	46.374631	-15.724953	-2.524188	-84.443077	-5.336179	-0.000000	0.000000	54.575776	14.950307	-8.187952	-56.625612	24.763870	-0.000000	0.000000	41.148615	-5.436685	12.784374	0.000000	0.000000	0.000000	0.000000	0.000000	0.000000	8.478107	261.048279	29.808266	0.249388	-0.007460	-0.255252	0.000000	0.000000	0.000000	-0.004321	0.468868	0.010029
2.200000	0.259589	0.595669	-0.270504	-13.051114	-29.071957	80.129089	48.395736	-14.853073	-2.165977	-85.436528	-3.616911	-0.000000	0.000000	54.198716	14.565447	-7.775218	-56.492406	24.519064	-0.000000	0.000000	41.226793	-5.128125	11.921980	0.000000	0.000000	0.000000	0.000000	0.000000	0.000000	8.283880	252.197067	26.361904	0.249998	-0.007475	-0.255004	0.000000	0.000000	0.000000	-0.004547	0.493410	0.010554
2.210000	0.260096	0.597170	-0.275724	-12.515049	-29.531300	80.316185	50.446449	-13.924247	-1.845708	-86.190936	-1.893358	-0.000000	0.000000	53.840841	14.173110	-7.321341	-56.217832	24.230561	-0.000000	0.000000	41.322112	-4.802403	11.119160	0.000000	0.000000	0.000000	0.000000	0.000000	0.000000	7.879010	243.141479	23.122129	0.250677	-0.007517	-0.254709	0.000000	0.000000	0.000000	-0.004687	0.508524	0.010877
2.220000	0.260653	0.598748	-0.280756	-11.994804	-30.046030	80.487274	52.520757	-12.960201	-1.538194	-86.712680	-0.215467	-0.000000	0.000000	53.503747	13.785723	-6.852468	-55.814844	23.906489	-0.000000	0.000000	41.434281	-4.475681	10.396228	0.000000	0.000000	0.000000	0.000000	0.000000	0.000000	7.271855	234.096939	20.085108	0.251411	-0.007573	-0.254386	0.000000	0.000000	0.000000	-0.004735	0.513746	0.010989
2.230000	0.261260	0.600366	-0.285632	-11.507955	-30.606136	80.637482	54.607284	-11.982978	-1.227686	-87.007983	1.383448	-0.000000	0.000000	53.184993	13.415317	-6.386308	-55.295634	23.554961	-0.000000	0.000000	41.562777	-4.163537	9.757661	0.000000	0.000000	0.000000	0.000000	0.000000	0.000000	6.522076	225.285492	17.220140	0.252182	-0.007628	-0.254035	0.000000	0.000000	0.000000	-0.004708	0.510893	0.010928
2.240000	0.261912	0.601993	-0.290393	-11.062337	-31.203245	80.772079	56.690126	-11.013084	-0.910731	-87.081913	2.881729	-0.000000	0.000000	52.880021	13.071698	-5.929508	-54.672871	23.184222	-0.000000	0.000000	41.707433	-3.878191	9.192648	0.000000	0.000000	0.000000	0.000000	0.000000	0.000000	5.716550	216.899597	14.481832	0.252962	-0.007670	-0.253651	0.000000	0.000000	0.000000	-0.004627	0.502098	0.010740
2.250000	0.262602	0.603602	-0.295079	-10.658238	-31.829861	80.901146	58.750692	-10.066881	-0.590524	-86.938848	4.267282	-0.000000	0.000000	52.582833	12.760306	-5.482564	-53.959809	22.802964	-0.000000	0.000000	41.867953	-3.627474	8.683110	0.000000	0.000000	0.000000	0.000000	0.000000	0.000000	4.945640	209.086121	11.826669	0.253725	-0.007685	-0.253213	0.000000	0.000000	0.000000	-0.004511	0.489523	0.010471
2.260000	0.263324	0.605171	-0.299730	-10.290686	-32.478485	81.035667	60.769149	-9.155669	-0.271976	-86.583112	5.537291	-0.000000	0.000000	52.286611	12.481495	-5.044461	-53.170523	22.420110	-0.000000	0.000000	42.043236	-3.414667	8.209010	0.000000	0.000000	0.000000	0.000000	0.000000	0.000000	4.280015	201.933258	9.229495	0.254447	-0.007668	-0.252710	0.000000	0.000000	0.000000	-0.004386	0.475930	0.010180
2.270000	0.264071	0.606683	-0.304385	-9.947500	-33.142117	81.189583	62.724209	-8.286441	0.035315	-86.018446	6.696111	-0.000000	0.000000	51.984932	12.230326	-4.612271	-52.321250	22.044470	-0.000000	0.000000	42.231268	-3.237301	7.747393	0.000000	0.000000	0.000000	0.000000	0.000000	0.000000	3.761564	195.471313	6.697702	0.255106	-0.007622	-0.252151	0.000000	0.000000	0.000000	-0.004274	0.463793	0.009921
2.280000	0.264832	0.608120	-0.309079	-9.609188	-33.814514	81.380257	64.593270	-7.462958	0.313983	-85.247400	7.751433	-0.000000	0.000000	51.672365	11.996592	-4.181957	-51.430840	21.684898	-0.000000	0.000000	42.429306	-3.087223	7.273462	0.000000	0.000000	0.000000	0.000000	0.000000	0.000000	3.404028	189.663696	4.264548	0.255703	-0.007553	-0.251563	0.000000	0.000000	0.000000	-0.004192	0.454882	0.009730
